<svg width="160" height="160" viewBox="0 0 160 160" fill="none" xmlns="http://www.w3.org/2000/svg">
<path fill-rule="evenodd" clip-rule="evenodd" d="M91.8272 0.180256C105.373 -0.766421 118.14 2.01575 130.128 8.52676C134.885 11.2353 139.149 14.6301 142.92 18.711C143.235 19.0293 143.211 19.3101 142.846 19.5533C142.55 19.6555 142.254 19.6555 141.958 19.5533C136.567 16.3025 130.948 13.5458 125.1 11.2834C103.195 3.22696 83.8232 7.41307 66.9835 23.8414C63.1921 27.6648 59.6183 31.6721 56.2622 35.8635C51.9168 41.7419 47.6282 47.6634 43.3967 53.6285C38.6505 59.8966 33.2036 65.4099 27.056 70.1684C27.5507 70.3305 28.0435 70.305 28.5348 70.0918C34.5989 67.9987 40.1691 64.9869 45.2452 61.0561C48.4426 58.5108 51.5973 55.9073 54.7095 53.2456C62.1475 46.4107 69.5415 39.5191 76.8914 32.5708C88.3191 21.5645 101.825 17.021 117.41 18.9407C127.376 20.2361 136.544 23.7073 144.916 29.3547C149.926 33.1678 153.401 38.145 155.341 44.2865C155.603 46.1819 154.887 46.7179 153.197 45.8946C147.955 42.5933 142.484 39.7346 136.783 37.3184C120.477 30.6902 104.95 32.2216 90.2005 41.9128C85.049 45.3482 80.2182 49.2278 75.7083 53.5519C70.8725 58.2028 65.9925 62.7972 61.0683 67.3351C57.6843 70.516 54.0366 73.3238 50.1252 75.7582C49.2379 76.2176 48.3506 76.6771 47.4634 77.1365C43.2507 78.6588 39.0608 80.2413 34.8936 81.8841C30.3431 83.9203 26.3749 86.8045 22.9893 90.5369C18.5729 96.1192 17.1926 102.449 18.8487 109.527C19.103 110.869 19.5221 112.145 20.1057 113.356C19.0764 101.798 23.9072 94.4211 34.5978 91.226C36.1565 90.7713 37.7339 90.4141 39.33 90.154C45.3688 89.4616 51.3826 88.5938 57.3713 87.5505C63.6091 86.3514 69.3272 83.901 74.5253 80.1995C76.0041 78.9743 77.4829 77.7491 78.9617 76.5239C86.0599 69.6833 93.1581 62.8429 100.256 56.0023C111.662 47.0317 124.133 45.0408 137.67 50.0295C139.708 50.8552 141.729 51.7229 143.733 52.633C144.423 52.7352 145.113 52.7352 145.803 52.633C147.045 51.9391 148.326 51.3265 149.648 50.7953C152.146 50.5185 153.897 51.5651 154.898 53.9348C156.456 62.4864 158.133 71.0116 159.926 79.5103C160.025 80.8886 160.025 82.2669 159.926 83.6453C159.578 85.2885 159.183 86.9222 158.743 88.546C158.599 89.2266 158.525 89.9157 158.521 90.6135C159.274 98.0388 159.299 105.466 158.595 112.896C158.071 116.833 157.209 120.688 156.007 124.459C153.911 130.763 151.817 137.068 149.722 143.373C149.017 146.037 148.524 148.742 148.243 151.489C147.613 153.673 146.405 155.434 144.62 156.773C141.777 158.787 138.623 159.859 135.156 159.989C128.85 160.122 122.737 159.05 116.819 156.773C109.704 154.11 103 150.638 96.7072 146.359C91.3952 142.593 86.9836 137.922 83.472 132.346C81.0833 128.039 79.6785 123.419 79.2574 118.486C78.8631 118.384 78.4688 118.384 78.0744 118.486C77.0393 118.843 76.0041 119.201 74.9689 119.558C73.638 119.66 72.3071 119.66 70.9762 119.558C70.1769 119.402 69.4375 119.095 68.758 118.639C64.2988 114.685 62.2038 109.657 62.4731 103.554C63.5157 98.5945 66.3993 95.4039 71.1241 93.9827C76.9427 93.1215 82.6114 93.7341 88.1302 95.8204C94.6965 98.1331 100.439 101.783 105.358 106.77C107.772 109.368 109.546 112.38 110.682 115.806C110.935 116.657 111.132 117.525 111.273 118.41C111.412 128.169 115.331 135.8 123.03 141.305C127.21 144.178 131.794 145.964 136.783 146.665C140.257 147.439 143.239 146.546 145.729 143.985C146.773 142.521 147.167 140.887 146.912 139.084C146.686 138.132 146.118 137.749 145.212 137.936C144.768 138.089 144.324 138.242 143.881 138.395C141.463 139.536 138.999 140.558 136.487 141.458C134.644 142.089 132.771 142.242 130.867 141.918C129.606 141.579 128.645 140.839 127.984 139.697C127.835 138.991 127.933 138.327 128.279 137.706C129.641 136.148 131.293 134.999 133.233 134.26C136.481 132.863 139.858 132.072 143.363 131.887C144.078 131.912 144.793 131.938 145.507 131.963C146.262 132.226 147.001 132.532 147.726 132.882C147.922 132.984 148.12 132.984 148.317 132.882C148.688 132.14 148.663 131.4 148.243 130.661C147.677 129.896 147.183 129.079 146.764 128.211C146.696 127.51 146.968 126.974 147.578 126.603C149.201 126.21 150.556 125.367 151.644 124.076C152.276 122.776 152.325 121.449 151.792 120.094C150.649 117.472 149.466 114.869 148.243 112.284C146.742 108.906 145.978 105.358 145.951 101.64C145.791 98.7177 146.605 96.1396 148.391 93.9061C149.584 92.8414 150.793 91.7948 152.014 90.7666C154.297 88.11 155.111 85.0214 154.454 81.5012C153.707 77.0641 152.771 72.6738 151.644 68.3306C151.386 66.6948 150.621 65.3931 149.352 64.4253C145.516 61.9286 141.474 59.8355 137.226 58.1463C122.779 54.1803 113.536 59.617 109.499 74.4565C109.208 77.0109 109.208 79.5634 109.499 82.1138C109.875 83.3188 110.492 84.3652 111.347 85.2533C112.183 85.8901 113.12 86.171 114.157 86.0956C117.346 85.5987 120.55 85.2412 123.769 85.0236C129.103 84.8989 133.786 86.6091 137.818 90.154C138.899 91.2217 139.811 92.4213 140.553 93.753C140.946 95.1838 140.576 96.3324 139.444 97.1988C139.021 97.4219 138.577 97.4729 138.113 97.3519C137.587 97.1638 137.094 96.9087 136.635 96.5862C134.361 94.7444 131.897 93.213 129.241 91.9918C123.11 89.607 117.54 90.5768 112.53 94.9016C111.414 95.9809 110.379 97.1295 109.425 98.3474C109.548 98.3984 109.671 98.4495 109.795 98.5005C115.966 97.047 122.202 96.6131 128.501 97.1988C131.256 97.2971 133.548 98.3947 135.378 100.491C136.808 102.813 136.389 104.676 134.121 106.081C133.125 106.556 132.089 106.914 131.015 107.153C128.452 107.255 125.889 107.255 123.326 107.153C120.16 106.894 117.252 105.874 114.601 104.09C113.918 103.589 113.474 102.926 113.27 102.099C113.364 101.595 113.66 101.442 114.157 101.64C114.65 102.355 115.241 102.967 115.932 103.478C119.328 105.228 122.926 106.07 126.727 106.005C129.327 106.217 131.791 105.732 134.121 104.55C135.006 103.519 135.08 102.421 134.343 101.257C133.109 99.9164 131.606 99.074 129.832 98.7302C124.998 98.019 120.168 98.07 115.34 98.8834C112.757 99.2601 110.194 99.745 107.65 100.338C107.511 100.322 107.388 100.271 107.281 100.185C107.182 99.8788 107.182 99.5725 107.281 99.2662C110.236 94.3018 114.451 91.1113 119.924 89.6946C124.277 88.991 128.369 89.7567 132.198 91.9918C134.17 93.3191 136.142 94.6463 138.113 95.9736C138.925 96.0797 139.368 95.6969 139.444 94.825C139.281 94.0792 138.961 93.4156 138.483 92.8341C133.65 87.49 127.711 85.3714 120.664 86.4785C118.601 86.8803 116.531 87.2121 114.453 87.4739C111.646 87.4107 109.699 86.0324 108.612 83.339C107.586 79.9399 107.537 76.5197 108.464 73.0781C112.428 59.3971 121.227 53.7561 134.86 56.1554C137.27 56.6979 139.586 57.5146 141.81 58.6058C144.592 60.0205 147.304 61.552 149.944 63.2002C150.51 63.6852 151.078 64.17 151.644 64.6551C152.019 65.3295 152.314 66.0443 152.532 66.7991C153.891 71.5842 154.976 76.4339 155.785 81.3481C156.625 86.6753 154.876 90.7847 150.535 93.6764C147.624 96.416 146.563 99.8108 147.356 103.861C147.745 106.958 148.583 109.919 149.87 112.743C150.945 114.92 151.98 117.115 152.975 119.328C154.218 122.72 153.305 125.247 150.24 126.909C149.54 127.182 148.875 127.514 148.243 127.905C148.144 128.058 148.144 128.211 148.243 128.364C149.162 129.295 149.728 130.419 149.944 131.733C149.876 132.87 149.432 133.814 148.613 134.567C147.832 134.805 147.192 134.549 146.69 133.801C146.229 133.511 145.737 133.307 145.212 133.188C140.257 132.965 135.623 134.139 131.311 136.711C128.331 138.788 128.627 140.167 132.198 140.846C132.79 140.948 133.381 140.948 133.973 140.846C135.122 140.552 136.256 140.194 137.374 139.774C139.77 138.742 142.186 137.772 144.62 136.864C146.631 136.257 147.84 136.997 148.243 139.084C148.511 142.999 146.908 145.729 143.437 147.278C141.33 148.059 139.161 148.313 136.93 148.044C127.371 146.684 119.755 142.013 114.083 134.031C112.645 131.607 111.61 129.004 110.978 126.22C110.473 123.377 110.078 120.518 109.795 117.644C108.927 113.957 107.251 110.741 104.767 107.996C97.4045 100.497 88.5563 96.1326 78.2223 94.9016C73.8996 94.1063 70.0548 95.1271 66.6877 97.9645C64.2668 100.433 63.3548 103.419 63.9519 106.924C64.5167 111.08 66.2667 114.577 69.2016 117.414C71.1813 118.497 73.2516 118.701 75.4126 118.027C76.408 117.7 77.3939 117.343 78.3702 116.955C79.5596 116.613 80.3237 117.047 80.6623 118.256C81.2909 125.577 83.9528 131.958 88.6478 137.4C93.0621 142.178 98.0653 146.135 103.658 149.269C110.643 153.168 117.988 156.078 125.692 157.998C131.057 159.335 136.331 159.029 141.515 157.079C143.83 156.162 145.53 154.554 146.617 152.255C147.065 149.217 147.656 146.204 148.391 143.219C149.999 138.021 151.724 132.865 153.567 127.752C156.641 119.262 158.046 110.481 157.781 101.41C157.762 97.9582 157.614 94.5124 157.338 91.0729C157.363 90.2306 157.387 89.3883 157.412 88.546C157.876 86.7771 158.269 84.9904 158.595 83.1858C158.695 81.5988 158.647 80.0163 158.447 78.4383C156.693 70.4048 155.066 62.339 153.567 54.2411C152.897 52.4516 151.64 51.7624 149.796 52.1736C149.444 52.2519 149.099 52.354 148.761 52.4799C147.989 53.0586 147.15 53.5181 146.247 53.8582C145.466 54.0663 144.678 54.1173 143.881 54.0114C141.777 53.2338 139.706 52.366 137.67 51.4079C129.1 48.112 120.474 47.9077 111.791 50.7953C108.119 52.1852 104.767 54.1251 101.735 56.6149C99.7197 58.3445 97.7479 60.1313 95.8199 61.975C90.0924 67.7028 84.2759 73.3181 78.3702 78.8211C71.2048 84.9224 62.9728 88.4957 53.6743 89.5414C48.1483 90.2738 42.6276 91.0395 37.1118 91.8386C25.1448 94.4996 20.0922 102.08 21.9542 114.581C22.332 116.401 22.8249 118.188 23.4329 119.941C23.6511 120.64 23.7743 121.355 23.8026 122.085C23.2221 122.154 22.7539 121.95 22.3978 121.473C19.5731 116.986 17.7986 112.085 17.0741 106.77C16.3438 100.347 17.9704 94.6804 21.9542 89.7711C26.3565 84.9493 31.6062 81.4525 37.7033 79.2806C40.7819 78.2179 43.8381 77.0949 46.8718 75.9114C49.1547 74.819 51.3236 73.5428 53.3785 72.0827C60.0989 66.5542 66.5564 60.6835 72.7507 54.4708C76.7677 50.6156 80.9576 46.9913 85.3205 43.5974C90.5099 39.7356 96.1293 36.6727 102.179 34.4086C111.11 31.5577 120.131 31.2514 129.241 33.4897C137.333 35.7406 144.923 39.1609 152.014 43.7505C152.601 44.1577 153.243 44.3875 153.937 44.4397C151.785 37.591 147.695 32.3584 141.663 28.7421C130.763 22.2703 119.031 19.3605 106.467 20.0128C97.8502 20.8022 90.0618 23.8142 83.1023 29.0484C80.7583 31.0029 78.4414 32.9938 76.152 35.0212C69.1097 41.7291 62.0114 48.3656 54.8573 54.9302C49.7011 59.5403 44.1801 63.6242 38.2948 67.182C34.5016 69.4527 30.4594 71.0353 26.1687 71.9295C25.0349 72.0317 23.9013 72.0317 22.7675 71.9295C22.5664 71.6327 22.6156 71.3776 22.9154 71.1638C26.9982 68.6729 30.7444 65.7119 34.1542 62.2813C37.4056 58.9154 40.4372 55.3675 43.2488 51.6376C48.56 43.8054 54.2288 36.25 60.2549 28.9719C66.3841 21.7842 73.5069 15.9391 81.6235 11.4365C93.8654 5.32185 106.534 4.19883 119.629 8.06732C125.144 9.69787 130.468 11.8419 135.6 14.4995C135.982 14.7007 136.377 14.8029 136.783 14.8058C125.73 6.21087 113.259 1.82072 99.3691 1.63515C94.0649 1.03943 88.9384 1.75412 83.9896 3.77921C80.4803 5.36596 77.1777 7.30587 74.0817 9.59879C70.9883 12.087 67.9815 14.6905 65.061 17.4093C57.8161 24.7582 50.8412 32.3389 44.1361 40.1516C38.4744 46.5824 32.3374 52.4275 25.7251 57.6869C21.7916 60.5921 17.5524 62.9403 13.0074 64.7316C9.53657 65.8242 5.98746 66.4879 2.36012 66.7225C6.66127 71.4522 11.7877 74.8726 17.7396 76.9834C20.7062 77.6764 23.713 77.9572 26.7602 77.8257C26.8556 78.2923 26.7077 78.624 26.3166 78.8211C22.0055 79.4368 17.8648 78.8242 13.8947 76.9834C8.4684 74.3759 3.85949 70.6748 0.0679924 65.8802C-0.0428285 65.7064 -0.018177 65.5533 0.141932 65.4208C0.333377 65.3292 0.530545 65.2526 0.73345 65.1911C5.10676 65.3974 9.34597 64.7338 13.4511 63.2002C19.3525 60.7595 24.6762 57.3902 29.4221 53.0925C34.3623 48.6403 39.0697 43.9184 43.5446 38.9264C50.4551 30.9014 57.6273 23.1164 65.061 15.5715C68.5523 12.1585 72.2985 9.09555 76.2999 6.3827C81.0737 3.19449 86.2495 1.12703 91.8272 0.180256Z" fill="white"/>
</svg>
